# xmcd
#
# Track frame offsets: 
#        150
#        20227
#        40115
#        58280
#        75765
#        95397
#        111385
#        133492
#        148940
#        164710
#        182295
#        208930
#        230895
#        253157
#        280735
#        299910
#
# Disc length: 4223 seconds
#
# Revision: 4
# Processed by: cddbd v1.5.2PL0 Copyright (c) Steve Scherf et al.
# Submitted via: ExactAudioCopy v0.99pb5
#
DISCID=06107d10
DTITLE=Various Artist - Missing You  - CD 1
DYEAR=1991
DGENRE=Pop
TTITLE0=John Waite - Missing you
TTITLE1=Richard Marx - Right here waiting
TTITLE2=Marillion - Kayleigh
TTITLE3=Crowded House - Don't dream it's over
TTITLE4=Bliss - How does it feel the morning after
TTITLE5=Brother Beyond - When will I see you again
TTITLE6=Wilson Phillips - Release me
TTITLE7=Elton John - Blue eyes
TTITLE8=Phil Collins - A groovy kind of love
TTITLE9=Cars - Drive
TTITLE10=Paul Young - Wherever I lay my hat
TTITLE11=Bonnie Bianco - Miss you so
TTITLE12=Bee Gees - Too much heaven
TTITLE13=10cc - I'm not in love
TTITLE14=Grayson Hugh - Talk it over
TTITLE15=A-ha - Take on me
EXTD=
EXTT0=
EXTT1=
EXTT2=
EXTT3=
EXTT4=
EXTT5=
EXTT6=
EXTT7=
EXTT8=
EXTT9=
EXTT10=
EXTT11=
EXTT12=
EXTT13=
EXTT14=
EXTT15=
PLAYORDER=
